<svg width="45" height="45" viewBox="0 0 45 45" fill="none" xmlns="http://www.w3.org/2000/svg">
<path d="M0 22.5744C0 28.4517 2.03188 34.0882 5.64865 38.2441C9.26543 42.3999 14.1708 44.7347 19.2857 44.7347C24.4071 44.7347 29.3143 42.4202 33 38.3328L29.7857 34.6394C28.4362 36.2804 26.8081 37.5859 25.0021 38.4752C23.1961 39.3646 21.2506 39.8189 19.2857 39.8102C5.91429 39.8102 -0.771428 21.2448 8.67857 10.3862C18.1286 -0.472349 34.2857 7.23451 34.2857 22.5744H27.8571L36.4286 32.4234H36.6429L45 22.5744H38.5714C38.5714 16.6971 36.5395 11.0605 32.9228 6.90467C29.306 2.7488 24.4006 0.414063 19.2857 0.414062C14.1708 0.414063 9.26543 2.7488 5.64865 6.90467C2.03188 11.0605 0 16.6971 0 22.5744Z" fill="#C1C1C1"/>
</svg>
