<svg width="36" height="45" viewBox="0 0 36 45" fill="none" xmlns="http://www.w3.org/2000/svg">
<path d="M11.0531 31.5L12.8812 24.0128L6.75 18.977L14.85 18.3109L18 11.25L21.15 18.3109L29.25 18.977L23.1187 24.0128L24.9469 31.5L18 27.5299L11.0531 31.5Z" fill="#6B46C1"/>
<path d="M18 45C12.7875 43.6875 8.48475 40.6965 5.09175 36.027C1.69725 31.359 0 26.175 0 20.475V6.75L18 0L36 6.75V20.475C36 26.175 34.3035 31.359 30.9105 36.027C27.516 40.6965 23.2125 43.6875 18 45ZM18 40.275C21.9 39.0375 25.125 36.5625 27.675 32.85C30.225 29.1375 31.5 25.0125 31.5 20.475V9.84375L18 4.78125L4.5 9.84375V20.475C4.5 25.0125 5.775 29.1375 8.325 32.85C10.875 36.5625 14.1 39.0375 18 40.275Z" fill="#C1C1C1"/>
</svg>
