<svg width="42" height="42" viewBox="0 0 42 42" fill="none" xmlns="http://www.w3.org/2000/svg">
<path d="M13.5371 26.374L17.5785 21.7611L15.1012 15.9539L21.0631 18.4599L25.8808 14.6336L25.5098 20.7747L30.9822 24.221L24.8043 25.5226L23.3437 31.479L19.8991 26.1243L13.5371 26.374Z" fill="#6B46C1"/>
<path d="M40.761 20.118L21.861 1.218C21.0735 0.436967 20.0091 -0.00088373 18.9 1.3392e-06H4.2C3.08609 1.3392e-06 2.01781 0.4425 1.23015 1.23015C0.4425 2.01781 1.31865e-06 3.08609 1.31865e-06 4.2V18.9C-0.000437832 19.4542 0.108815 20.003 0.321463 20.5148C0.53411 21.0266 0.845948 21.4913 1.239 21.882L20.139 40.782C20.9265 41.563 21.9909 42.0009 23.1 42C24.2121 41.9953 25.277 41.5497 26.061 40.761L40.761 26.061C41.5497 25.277 41.9953 24.2121 42 23.1C42.0004 22.5458 41.8912 21.997 41.6785 21.4852C41.4659 20.9734 41.1541 20.5087 40.761 20.118ZM23.1 37.8L4.2 18.9V4.2H18.9L37.8 23.1M9.45 6.3C10.073 6.3 10.682 6.48475 11.2 6.83087C11.7181 7.177 12.1218 7.66896 12.3602 8.24455C12.5986 8.82014 12.661 9.4535 12.5395 10.0645C12.4179 10.6756 12.1179 11.2369 11.6774 11.6774C11.2369 12.1179 10.6756 12.4179 10.0645 12.5395C9.4535 12.661 8.82014 12.5986 8.24455 12.3602C7.66896 12.1218 7.177 11.7181 6.83087 11.2C6.48475 10.682 6.3 10.073 6.3 9.45C6.3 8.61457 6.63188 7.81335 7.22261 7.22261C7.81335 6.63188 8.61457 6.3 9.45 6.3Z" fill="#C1C1C1"/>
<path d="M13.8464 39.0464L2.95353 28.1535C2.63855 27.8386 2.09998 28.0616 2.09998 28.5071V39.4C2.09998 39.6761 2.32383 39.9 2.59998 39.9H13.4929C13.9383 39.9 14.1614 39.3614 13.8464 39.0464Z" stroke="#6B46C1"/>
</svg>
